<svg xmlns="http://www.w3.org/2000/svg" viewBox="0 0 32 32" width="32" height="32">
  <rect width="32" height="32" rx="6" fill="#0f1724"/>
  <!-- Fox ears -->
  <polygon points="4,14 9,4 13,12" fill="#f59e0b"/>
  <polygon points="19,12 23,4 28,14" fill="#f59e0b"/>
  <polygon points="5.5,13 9,5.5 12,11.5" fill="#fbbf24"/>
  <polygon points="20,11.5 23,5.5 26.5,13" fill="#fbbf24"/>
  <!-- Fox face -->
  <ellipse cx="16" cy="20" rx="10" ry="9" fill="#f59e0b"/>
  <ellipse cx="16" cy="20" rx="8" ry="7.5" fill="#fbbf24"/>
  <!-- Snout -->
  <ellipse cx="16" cy="23" rx="4" ry="3" fill="#f59e0b"/>
  <!-- Nose -->
  <ellipse cx="16" cy="21.5" rx="1.5" ry="1" fill="#1e1b18"/>
  <!-- Eyes -->
  <ellipse cx="11.5" cy="18.5" rx="1.8" ry="1.8" fill="#0f1724"/>
  <ellipse cx="20.5" cy="18.5" rx="1.8" ry="1.8" fill="#0f1724"/>
  <ellipse cx="12" cy="18" rx="0.6" ry="0.6" fill="#fff"/>
  <ellipse cx="21" cy="18" rx="0.6" ry="0.6" fill="#fff"/>
</svg>
